#!OML:ASF F:\VICON\USERDATA\INSTALL\rory3\rory3.ASF
:FULLY-SPECIFIED
:DEGREES
4394
root -8.81508 17.858 8.12081 -912.156 -77.5898 -888.382
lowerback 13.1077 1.35668 -0.339238
upperback 1.01596 1.74759 0.926667
thorax -6.32171 0.849168 0.851361
lowerneck -12.4937 -4.85818 -11.9262
upperneck 37.5564 -9.24629 8.31113
head 16.6022 -5.12643 3.95749
rclavicle 2.14936e-015 -2.88238e-015
rhumerus -37.4971 -15.9693 -74.5368
rradius 37.0993
rwrist 2.55693
rhand -18.1449 9.35656
rfingers 7.12502
rthumb 8.13049 -20.467
lclavicle 2.14936e-015 -2.88238e-015
lhumerus -34.8217 10.1375 76.6343
lradius 35.9167
lwrist -3.87838
lhand -20.2134 21.0952
lfingers 7.12502
lthumb 6.13377 50.9864
rfemur -4.70552 2.00365 18.8292
rtibia 25.7574
rfoot -15.7043 -3.52653
rtoes -4.42892
lfemur -10.2989 -5.94976 -6.32664
ltibia 33.5754
lfoot -9.83319 2.64103
ltoes -15.2364
4395
root -8.80675 17.8534 8.06421 -910.513 -77.5147 -890.212
lowerback 13.1832 1.40295 -0.592994
upperback 1.09501 1.7626 0.835115
thorax -6.28502 0.86079 0.894752
lowerneck -12.5586 -4.85624 -11.9514
upperneck 37.6991 -9.24119 8.26502
head 16.6926 -5.13816 3.94463
rclavicle -7.00716e-015 -2.5842e-015
rhumerus -37.4884 -16.0545 -74.2491
rradius 36.9992
rwrist 2.61564
rhand -18.3904 9.39656
rfingers 7.12502
rthumb 7.89354 -20.4361
lclavicle -7.00716e-015 -2.5842e-015
lhumerus -34.8482 10.0731 76.8375
lradius 35.8392
lwrist -4.39448
lhand -19.3384 20.9489
lfingers 7.12502
lthumb 6.97853 50.8139
rfemur -4.78547 2.04332 18.6415
rtibia 26.2321
rfoot -15.9625 -3.49014
rtoes -4.09881
lfemur -10.3309 -5.77122 -7.50237
ltibia 34.1022
lfoot -11.2419 1.30444
ltoes -16.8077
4396
root -8.79792 17.8515 8.01655 -909.68 -77.5335 -891.051
lowerback 13.1155 1.35081 -0.573723
upperback 1.12796 1.69306 0.793213
thorax -6.20889 0.82535 0.854271
lowerneck -12.6354 -4.86214 -12.1316
upperneck 37.8972 -9.27266 8.35263
head 16.8432 -5.17497 4.01478
rclavicle -2.83889e-015 6.26172e-015
rhumerus -37.4512 -16.1454 -73.9477
rradius 36.8583
rwrist 2.76621
rhand -18.5727 9.45091
rfingers 7.12502
rthumb 7.71757 -20.3883
lclavicle -2.83889e-015 6.26172e-015
lhumerus -34.959 10.1273 77.0437
lradius 35.7912
lwrist -4.96853
lhand -19.3039 21.0264
lfingers 7.12502
lthumb 7.01179 50.8903
rfemur -4.99307 1.92331 18.6363
rtibia 26.6159
rfoot -16.1213 -3.55683
rtoes -4.46135
lfemur -10.6322 -5.52038 -8.48998
ltibia 34.668
lfoot -12.52 0.137417
ltoes -19.3787
4397
root -8.79473 17.8515 7.96984 -909.195 -77.5771 -891.465
lowerback 12.9484 1.2716 -0.438403
upperback 1.13762 1.60716 0.768363
thorax -6.09914 0.779796 0.770668
lowerneck -12.6467 -4.82257 -12.2133
upperneck 37.97 -9.21434 8.37618
head 16.8834 -5.16423 4.05337
rclavicle 1.85491e-014 9.44227e-016
rhumerus -37.4618 -16.0855 -73.6663
rradius 36.7612
rwrist 2.72472
rhand -18.7351 9.28619
rfingers 7.12502
rthumb 7.56081 -20.5587
lclavicle 1.85491e-014 9.44227e-016
lhumerus -35.0084 10.0596 77.3513
lradius 35.7026
lwrist -4.72144
lhand -19.8935 20.9931
lfingers 7.12502
lthumb 6.44264 50.8751
rfemur -5.17542 1.85112 18.7198
rtibia 26.8707
rfoot -16.1796 -3.67593
rtoes -4.66369
lfemur -11.0275 -5.2158 -9.395
ltibia 35.3067
lfoot -13.7782 -1.09898
ltoes -20.3348
4398
root -8.79187 17.8521 7.92037 -909.587 -77.5984 -891.003
lowerback 12.7931 1.1994 -0.157427
upperback 1.15116 1.55254 0.781498
thorax -5.98999 0.746182 0.63874
lowerneck -12.6278 -4.78529 -12.1196
upperneck 37.9649 -9.15237 8.29153
head 16.8525 -5.1361 4.00981
rclavicle 2.47704e-014 -4.37326e-015
rhumerus -37.465 -16.0221 -73.444
rradius 36.6678
rwrist 2.54573
rhand -18.9446 9.11887
rfingers 7.12502
rthumb 7.35858 -20.7332
lclavicle 2.47704e-014 -4.37326e-015
lhumerus -35.0646 9.86987 77.6429
lradius 35.744
lwrist -4.12469
lhand -19.0091 20.5918
lfingers 7.12502
lthumb 7.29634 50.446
rfemur -5.26875 1.96255 19.0477
rtibia 27.0396
rfoot -16.252 -3.90677
rtoes -4.43081
lfemur -11.4109 -4.9353 -10.0977
ltibia 35.9774
lfoot -15.0238 -2.18588
ltoes -21.0812
4399
root -8.78515 17.8488 7.87847 -911.091 -77.658 -889.342
lowerback 12.6415 1.1134 0.454232
upperback 1.11972 1.52734 0.813526
thorax -5.92297 0.719528 0.334231
lowerneck -12.5569 -4.79782 -11.8959
upperneck 37.9804 -9.19332 8.1343
head 16.8221 -5.14362 3.89129
rclavicle -1.30763e-014 -6.85807e-015
rhumerus -37.5634 -16.3036 -73.1823
rradius 36.5616
rwrist 2.44975
rhand -19.142 8.96413
rfingers 7.12502
rthumb 7.16812 -20.8945
lclavicle -1.30763e-014 -6.85807e-015
lhumerus -35.1265 9.82328 77.7667
lradius 35.7852
lwrist -4.26441
lhand -18.6607 20.6873
lfingers 7.12502
lthumb 7.63268 50.5296
rfemur -5.46348 2.03513 19.6245
rtibia 27.2176
rfoot -16.2974 -4.14043
rtoes -4.23271
lfemur -11.9039 -4.79094 -10.5611
ltibia 36.5712
lfoot -16.1417 -3.19297
ltoes -21.8918
4400
root -8.78145 17.8435 7.8375 -912.111 -77.6643 -888.257
lowerback 12.5392 1.04491 0.934074
upperback 1.12475 1.50382 0.847527
thorax -5.84895 0.696629 0.105409
lowerneck -12.5367 -4.78998 -11.8286
upperneck 38.0249 -9.18078 8.04778
head 16.828 -5.14236 3.84356
rclavicle 1.47225e-015 -9.44227e-015
rhumerus -37.6525 -16.5981 -72.8417
rradius 36.4703
rwrist 2.38556
rhand -19.2026 9.02981
rfingers 7.12502
rthumb 7.1096 -20.8308
lclavicle 1.47225e-015 -9.44227e-015
lhumerus -35.1662 10.0291 77.8773
lradius 35.6941
lwrist -4.61273
lhand -19.7877 20.9584
lfingers 7.12502
lthumb 6.54473 50.8373
rfemur -5.62148 2.16457 20.052
rtibia 27.4942
rfoot -16.3963 -4.30816
rtoes -3.76754
lfemur -12.2136 -4.65113 -11.1969
ltibia 37.0025
lfoot -17.1511 -4.19063
ltoes -22.394
4401
root -8.785 17.8413 7.79296 -910.455 -77.603 -890.061
lowerback 12.4976 1.05796 0.703471
upperback 1.19782 1.48246 0.784758
thorax -5.75284 0.691102 0.174709
lowerneck -12.5444 -4.76734 -12.0234
upperneck 38.0605 -9.12336 8.11501
head 16.8588 -5.1407 3.921
rclavicle -1.31229e-015 8.52289e-015
rhumerus -37.6582 -16.6664 -72.4909
rradius 36.3597
rwrist 2.31328
rhand -19.1743 9.04522
rfingers 7.12502
rthumb 7.13694 -20.8144
lclavicle -1.31229e-015 8.52289e-015
lhumerus -35.2459 10.1517 78.1128
lradius 35.6458
lwrist -4.44474
lhand -18.9811 20.5323
lfingers 7.12502
lthumb 7.3234 50.3856
rfemur -5.65414 2.24666 19.8015
rtibia 27.8806
rfoot -16.6446 -4.30191
rtoes -3.48389
lfemur -12.1897 -4.25689 -12.5067
ltibia 37.2629
lfoot -18.1269 -5.54476
ltoes -22.113
4402
root -8.7891 17.8367 7.75292 -906.938 -77.5854 -893.778
lowerback 12.4896 1.10353 0.0899376
upperback 1.24731 1.44683 0.603205
thorax -5.70679 0.686418 0.336867
lowerneck -12.5263 -4.78059 -12.2104
upperneck 38.0922 -9.10669 8.12894
head 16.8835 -5.16199 3.96496
rclavicle -1.96937e-014 6.47293e-015
rhumerus -37.6953 -16.8179 -72.1401
rradius 36.1747
rwrist 2.24459
rhand -19.2363 8.99034
rfingers 7.12502
rthumb 7.07702 -20.8713
lclavicle -1.96937e-014 6.47293e-015
lhumerus -35.3423 10.3305 78.2891
lradius 35.6158
lwrist -4.42276
lhand -17.0961 20.0914
lfingers 7.12502
lthumb 9.14257 49.8732
rfemur -5.71723 2.157 19.0536
rtibia 28.3443
rfoot -16.9131 -4.23262
rtoes -3.57305
lfemur -12.0919 -3.8804 -14.3207
ltibia 37.3757
lfoot -19.0117 -6.93431
ltoes -21.7352
4403
root -8.78922 17.8276 7.72123 -905.202 -77.5521 -895.562
lowerback 12.4726 1.11246 0.0117658
upperback 1.24089 1.44177 0.48875
thorax -5.70298 0.684881 0.261915
lowerneck -12.6122 -4.80877 -12.3124
upperneck 38.2259 -9.12076 8.0906
head 16.9857 -5.1906 3.9648
rclavicle 2.08413e-014 -7.20594e-016
rhumerus -37.7978 -16.9992 -71.8007
rradius 36.0067
rwrist 1.93534
rhand -19.5243 9.04149
rfingers 7.12502
rthumb 6.79903 -20.8293
lclavicle 2.08413e-014 -7.20594e-016
lhumerus -35.3963 10.3282 78.4521
lradius 35.6293
lwrist -4.22026
lhand -17.7338 20.4767
lfingers 7.12502
lthumb 8.52723 50.2846
rfemur -5.95397 2.13449 18.7288
rtibia 28.8771
rfoot -17.1995 -4.15158
rtoes -3.13548
lfemur -12.1116 -3.57645 -15.6901
ltibia 37.3619
lfoot -19.8268 -8.37779
ltoes -21.5263
4404
root -8.78634 17.8196 7.68896 -904.972 -77.5553 -895.745
lowerback 12.4241 1.09228 0.234561
upperback 1.21382 1.44509 0.460414
thorax -5.69817 0.681502 0.106545
lowerneck -12.6598 -4.81193 -12.2862
upperneck 38.3277 -9.10304 7.98275
head 17.0414 -5.19551 3.91568
rclavicle -2.44132e-015 -5.51627e-015
rhumerus -37.9603 -17.3367 -71.4132
rradius 35.9787
rwrist 1.70012
rhand -19.822 9.02805
rfingers 7.12502
rthumb 6.51168 -20.8518
lclavicle -2.44132e-015 -5.51627e-015
lhumerus -35.4297 10.0009 78.6418
lradius 35.6493
lwrist -3.74693
lhand -18.1642 20.3206
lfingers 7.12502
lthumb 8.1119 50.1449
rfemur -6.29832 2.14082 18.7805
rtibia 29.4746
rfoot -17.4731 -4.05782
rtoes -2.57311
lfemur -12.2053 -3.44354 -16.6385
ltibia 37.2418
lfoot -20.317 -10.0857
ltoes -20.1863
4405
root -8.78425 17.8124 7.65107 -904.204 -77.5628 -896.447
lowerback 12.336 1.05796 0.289353
upperback 1.17313 1.40532 0.399152
thorax -5.68904 0.660987 0.0192849
lowerneck -12.5954 -4.80035 -12.3634
upperneck 38.2835 -9.0738 8.00673
head 17.0032 -5.19258 3.94605
rclavicle 1.92573e-015 6.01324e-015
rhumerus -38.1175 -17.5211 -71.1549
rradius 36.0226
rwrist 1.41968
rhand -19.9148 8.85409
rfingers 7.12502
rthumb 6.42203 -21.0285
lclavicle 1.92573e-015 6.01324e-015
lhumerus -35.4794 9.79574 78.7599
lradius 35.5582
lwrist -3.62166
lhand -17.7047 19.8895
lfingers 7.12502
lthumb 8.5553 49.6962
rfemur -6.6946 1.93513 18.7128
rtibia 30.0882
rfoot -17.7377 -3.82755
rtoes -2.28239
lfemur -12.2771 -3.48634 -17.669
ltibia 37.0075
lfoot -20.598 -11.7376
ltoes -18.7091
4406
root -8.78239 17.7972 7.60893 -902.973 -77.5377 -897.739
lowerback 12.3394 1.05482 0.119489
upperback 1.16824 1.37288 0.306634
thorax -5.69786 0.648231 0.0233915
lowerneck -12.4269 -4.81752 -12.455
upperneck 38.1149 -9.12603 8.14174
head 16.8928 -5.21034 4.01257
rclavicle -3.28492e-014 -5.96354e-016
rhumerus -38.2366 -17.7032 -70.9542
rradius 35.9747
rwrist 1.09549
rhand -19.8741 8.69295
rfingers 7.12502
rthumb 6.46133 -21.1885
lclavicle -3.28492e-014 -5.96354e-016
lhumerus -35.5585 9.91701 78.7807
lradius 35.4923
lwrist -3.77054
lhand -18.3756 20.2276
lfingers 7.12502
lthumb 7.90778 50.0597
rfemur -6.95031 1.7355 18.5206
rtibia 30.6883
rfoot -18.0786 -3.58386
rtoes -1.45641
lfemur -12.1303 -3.34235 -18.7783
ltibia 36.6363
lfoot -21.093 -13.4235
ltoes -18.6047
4407
root -8.78217 17.7798 7.56585 -902.428 -77.4347 -898.351
lowerback 12.305 1.11364 -0.0494917
upperback 1.19407 1.42731 0.309254
thorax -5.6558 0.678833 0.113121
lowerneck -12.3103 -4.85656 -12.3858
upperneck 37.9626 -9.18344 8.11205
head 16.7829 -5.224 3.97331
rclavicle -1.25545e-014 -2.98177e-016
rhumerus -38.4093 -18.0079 -70.6144
rradius 35.9723
rwrist 1.01556
rhand -19.7315 8.49843
rfingers 7.12502
rthumb 6.59907 -21.3788
lclavicle -1.25545e-014 -2.98177e-016
lhumerus -35.6059 10.0142 78.8801
lradius 35.4683
lwrist -3.78066
lhand -18.8675 20.3436
lfingers 7.12502
lthumb 7.43307 50.193
rfemur -7.17746 1.88698 18.5318
rtibia 31.2903
rfoot -18.397 -3.53623
rtoes -0.170413
lfemur -11.8939 -3.03069 -19.6461
ltibia 36.1032
lfoot -21.4249 -15.3384
ltoes -17.586
4408
root -8.78435 17.7651 7.52859 -902.733 -77.2335 -898.076
lowerback 12.2639 1.12044 0.0352509
upperback 1.19383 1.45127 0.36687
thorax -5.63267 0.689325 0.122492
lowerneck -12.3114 -4.83788 -12.2928
upperneck 37.9634 -9.12014 7.95726
head 16.7558 -5.20372 3.89771
rclavicle -2.55438e-014 4.37326e-015
rhumerus -38.5611 -18.0494 -70.3645
rradius 35.9686
rwrist 0.938837
rhand -19.6707 8.46901
rfingers 7.12502
rthumb 6.65771 -21.4063
lclavicle -2.55438e-014 4.37326e-015
lhumerus -35.7248 10.0545 78.9862
lradius 35.4857
lwrist -3.66426
lhand -18.7999 20.562
lfingers 7.12502
lthumb 7.49833 50.4091
rfemur -7.41688 1.98847 18.7281
rtibia 31.8592
rfoot -18.7017 -3.40886
rtoes 0.562425
lfemur -11.6354 -2.77791 -20.256
ltibia 35.4383
lfoot -21.5568 -16.7836
ltoes -16.6741
